<svg width="1080" height="232" viewBox="0 0 1080 232" fill="none" xmlns="http://www.w3.org/2000/svg">
<path d="M175.486 44.1999H211.761L250.074 137.672H251.704L290.017 44.1999H326.292V183.321H297.761V92.77H296.606L260.603 182.642H241.175L205.172 92.4304H204.017V183.321H175.486V44.1999ZM397.533 185.359C386.8 185.359 377.562 183.185 369.818 178.838C362.119 174.445 356.186 168.24 352.02 160.225C347.854 152.164 345.771 142.631 345.771 131.626C345.771 120.893 347.854 111.474 352.02 103.367C356.186 95.2608 362.051 88.9434 369.614 84.4145C377.222 79.8861 386.144 77.6217 396.378 77.6217C403.262 77.6217 409.671 78.7312 415.605 80.9502C421.583 83.1241 426.787 86.4072 431.227 90.8001C435.71 95.193 439.197 100.718 441.688 107.375C444.179 113.987 445.422 121.731 445.422 130.607V138.555H357.319V120.621H418.183C418.183 116.455 417.279 112.764 415.465 109.549C413.656 106.333 411.141 103.82 407.925 102.009C404.757 100.152 401.067 99.2233 396.854 99.2233C392.461 99.2233 388.566 100.242 385.17 102.28C381.819 104.273 379.192 106.967 377.29 110.364C375.388 113.715 374.414 117.451 374.369 121.573V138.623C374.369 143.785 375.32 148.247 377.222 152.005C379.17 155.764 381.91 158.662 385.442 160.7C388.974 162.738 393.163 163.757 398.009 163.757C401.226 163.757 404.167 163.304 406.841 162.399C409.511 161.493 411.799 160.134 413.7 158.323C415.605 156.511 417.051 154.292 418.048 151.665L444.813 153.432C443.454 159.862 440.668 165.478 436.456 170.279C432.291 175.034 426.903 178.747 420.291 181.419C413.724 184.046 406.14 185.359 397.533 185.359ZM502.758 185.019C494.831 185.019 487.654 182.981 481.222 178.905C474.837 174.785 469.764 168.739 466.006 160.768C462.292 152.752 460.439 142.925 460.439 131.287C460.439 119.331 462.36 109.39 466.209 101.465C470.059 93.4945 475.176 87.5394 481.564 83.5996C487.993 79.6143 495.035 77.6217 502.69 77.6217C508.533 77.6217 513.398 78.618 517.296 80.6106C521.233 82.5578 524.406 85.0032 526.805 87.9471C529.252 90.8455 531.105 93.6986 532.376 96.5062H533.257V44.1999H562.13V183.321H533.596V166.61H532.376C531.017 169.509 529.092 172.384 526.602 175.237C524.155 178.045 520.962 180.378 517.021 182.234C513.127 184.091 508.373 185.019 502.758 185.019ZM511.928 161.991C516.591 161.991 520.532 160.723 523.748 158.187C527.008 155.606 529.499 152.005 531.22 147.386C532.986 142.767 533.871 137.355 533.871 131.151C533.871 124.946 533.01 119.557 531.288 114.983C529.567 110.409 527.076 106.877 523.816 104.386C520.556 101.895 516.591 100.65 511.928 100.65C507.174 100.65 503.164 101.94 499.905 104.522C496.645 107.103 494.174 110.681 492.5 115.255C490.826 119.829 489.985 125.127 489.985 131.151C489.985 137.219 490.826 142.585 492.5 147.25C494.222 151.869 496.688 155.492 499.905 158.119C503.164 160.7 507.174 161.991 511.928 161.991ZM585.922 183.321V78.9803H614.859V183.321H585.922ZM600.456 65.5301C596.156 65.5301 592.466 64.1034 589.385 61.2503C586.352 58.3519 584.834 54.8875 584.834 50.8572C584.834 46.872 586.352 43.4526 589.385 40.5996C592.466 37.7013 596.156 36.2521 600.456 36.2521C604.76 36.2521 608.427 37.7013 611.463 40.5996C614.544 43.4526 616.082 46.872 616.082 50.8572C616.082 54.8875 614.544 58.3519 611.463 61.2503C608.427 64.1034 604.76 65.5301 600.456 65.5301Z" fill="#49D59A"/>
<path d="M724.855 108.734L698.361 110.364C697.911 108.1 696.935 106.062 695.44 104.25C693.946 102.394 691.977 100.922 689.53 99.8346C687.131 98.7024 684.254 98.1365 680.906 98.1365C676.423 98.1365 672.641 99.0874 669.56 100.99C666.48 102.846 664.941 105.337 664.941 108.462C664.941 110.953 665.938 113.058 667.93 114.779C669.923 116.501 673.342 117.881 678.188 118.923L697.07 122.727C707.217 124.811 714.781 128.162 719.762 132.781C724.744 137.4 727.235 143.469 727.235 150.986C727.235 157.825 725.218 163.825 721.185 168.988C717.2 174.151 711.72 178.181 704.746 181.079C697.82 183.932 689.825 185.359 680.767 185.359C666.958 185.359 655.951 182.483 647.753 176.732C639.603 170.935 634.825 163.055 633.422 153.092L661.885 151.598C662.745 155.809 664.826 159.025 668.133 161.244C671.441 163.418 675.674 164.504 680.834 164.504C685.908 164.504 689.985 163.531 693.065 161.584C696.19 159.591 697.772 157.032 697.819 153.907C697.772 151.28 696.664 149.13 694.492 147.454C692.316 145.733 688.964 144.419 684.437 143.514L666.368 139.914C656.178 137.876 648.594 134.343 643.612 129.317C638.675 124.29 636.208 117.881 636.208 110.092C636.208 103.39 638.017 97.6156 641.64 92.77C645.31 87.9243 650.447 84.1882 657.062 81.5615C663.718 78.9348 671.509 77.6217 680.428 77.6217C693.607 77.6217 703.977 80.4066 711.541 85.9772C719.149 91.5473 723.588 99.1328 724.855 108.734ZM763.321 222.449C759.65 222.449 756.211 222.154 752.995 221.566C749.827 221.022 747.197 220.32 745.116 219.46L751.636 197.858C755.032 198.9 758.088 199.466 760.806 199.556C763.568 199.647 765.947 199.013 767.94 197.654C769.976 196.296 771.63 193.986 772.897 190.726L774.595 186.31L737.166 78.9803H767.601L789.201 155.606H790.289L812.096 78.9803H842.731L802.177 194.597C800.228 200.213 797.582 205.104 794.23 209.27C790.923 213.482 786.734 216.72 781.661 218.985C776.588 221.294 770.474 222.449 763.321 222.449ZM886.477 122.999V183.321H857.54V78.9803H885.118V97.3893H886.341C888.653 91.321 892.522 86.5203 897.958 82.9882C903.394 79.4103 909.982 77.6217 917.725 77.6217C924.97 77.6217 931.291 79.2066 936.679 82.3769C942.067 85.5467 946.255 90.0756 949.244 95.9626C952.233 101.805 953.728 108.779 953.728 116.885V183.321H924.791V122.048C924.835 115.662 923.205 110.681 919.901 107.103C916.593 103.48 912.042 101.669 906.248 101.669C902.35 101.669 898.911 102.507 895.922 104.182C892.977 105.858 890.665 108.303 888.991 111.519C887.361 114.689 886.525 118.515 886.477 122.999ZM1023.68 185.359C1012.99 185.359 1003.8 183.095 996.099 178.566C988.447 173.992 982.561 167.652 978.44 159.545C974.363 151.439 972.327 142.11 972.327 131.558C972.327 120.87 974.387 111.496 978.508 103.435C982.673 95.3289 988.583 89.0111 996.238 84.4827C1003.89 79.9084 1012.99 77.6217 1023.55 77.6217C1032.65 77.6217 1040.62 79.2744 1047.46 82.5805C1054.3 85.8863 1059.71 90.5283 1063.69 96.5062C1067.68 102.484 1069.87 109.504 1070.28 117.565H1042.97C1042.2 112.357 1040.16 108.167 1036.86 104.998C1033.6 101.782 1029.32 100.175 1024.02 100.175C1019.54 100.175 1015.62 101.397 1012.27 103.843C1008.96 106.243 1006.38 109.753 1004.52 114.372C1002.67 118.991 1001.74 124.584 1001.74 131.151C1001.74 137.808 1002.64 143.469 1004.46 148.133C1006.31 152.798 1008.92 156.353 1012.27 158.798C1015.62 161.244 1019.54 162.466 1024.02 162.466C1027.33 162.466 1030.29 161.787 1032.92 160.429C1035.59 159.07 1037.79 157.1 1039.51 154.518C1041.28 151.892 1042.43 148.745 1042.97 145.076H1070.28C1069.83 153.047 1067.65 160.066 1063.76 166.135C1059.91 172.158 1054.59 176.868 1047.8 180.264C1041 183.661 1032.96 185.359 1023.68 185.359Z" fill="#49D59A"/>
<path d="M125.82 101.054H82.2669V57.5014C82.2669 52.1568 77.9326 47.8229 72.5884 47.8229H62.9098C57.5656 47.8229 53.2312 52.1568 53.2312 57.5014V101.054H9.67843C4.33411 101.054 0 105.388 0 110.733V120.411C0 125.755 4.33411 130.09 9.67843 130.09H53.2312V173.642C53.2312 178.987 57.5656 183.321 62.9098 183.321H72.5884C77.9326 183.321 82.2669 178.987 82.2669 173.642V130.09H125.82C131.164 130.09 135.498 125.755 135.498 120.411V110.733C135.498 105.388 131.164 101.054 125.82 101.054Z" fill="#49D59A"/>
</svg>
